<svg width="1198" height="289" viewBox="0 0 1198 289" fill="none" xmlns="http://www.w3.org/2000/svg">
<path d="M271 0H214.855C206.571 0 199.855 6.71573 199.855 15V71.1446C199.855 79.4289 206.571 86.1446 214.855 86.1446H271C279.284 86.1446 286 79.4289 286 71.1446V15C286 6.71573 279.284 0 271 0Z" fill="#382E7A"/>
<path d="M171 0H115C106.716 0 100 6.71573 100 15V121C100 129.284 106.716 136 115 136H171C179.284 136 186 129.284 186 121V15C186 6.71573 179.284 0 171 0Z" fill="white"/>
<path d="M171.072 99.9277H114.928C106.643 99.9277 99.9277 106.643 99.9277 114.928V171.072C99.9277 179.357 106.643 186.072 114.928 186.072H171.072C179.357 186.072 186.072 179.357 186.072 171.072V114.928C186.072 106.643 179.357 99.9277 171.072 99.9277Z" fill="white"/>
<path d="M171 136H115C106.716 136 100 142.716 100 151V271C100 279.284 106.716 286 115 286H171C179.284 286 186 279.284 186 271V151C186 142.716 179.284 136 171 136Z" fill="white"/>
<path d="M121 0H15C6.71573 0 0 6.71573 0 15V71C0 79.2843 6.71573 86 15 86H121C129.284 86 136 79.2843 136 71V15C136 6.71573 129.284 0 121 0Z" fill="white"/>
<path d="M252.248 168.24V286H214.104V168.24H252.248ZM286.296 208.176C284.248 206.128 282.029 204.507 279.64 203.312C277.421 202.117 274.605 201.52 271.192 201.52C267.437 201.52 264.109 202.544 261.208 204.592C258.307 206.64 256.088 209.627 254.552 213.552C253.016 217.477 252.248 222.256 252.248 227.888L243.032 214.32C243.032 204.933 244.824 196.571 248.408 189.232C252.163 181.893 257.027 176.091 263 171.824C268.973 167.557 275.203 165.424 281.688 165.424C285.955 165.424 290.051 166.277 293.976 167.984C297.901 169.691 300.888 172.08 302.936 175.152L286.296 208.176ZM349.306 249.136C349.306 252.208 350.074 254.853 351.61 257.072C353.146 259.12 355.194 260.741 357.754 261.936C360.314 262.96 363.13 263.472 366.202 263.472C370.639 263.472 374.735 262.533 378.49 260.656C382.245 258.779 385.317 255.963 387.706 252.208C390.095 248.453 391.29 243.845 391.29 238.384L395.386 253.744C395.386 261.253 393.338 267.653 389.242 272.944C385.146 278.064 379.855 281.989 373.37 284.72C366.885 287.28 359.887 288.56 352.378 288.56C344.869 288.56 337.871 287.195 331.386 284.464C325.071 281.563 319.951 277.296 316.026 271.664C312.271 266.032 310.394 259.205 310.394 251.184C310.394 239.92 314.405 231.045 322.426 224.56C330.447 217.904 341.797 214.576 356.474 214.576C363.642 214.576 370.042 215.259 375.674 216.624C381.477 217.989 386.426 219.696 390.522 221.744C394.618 223.792 397.69 225.925 399.738 228.144V245.296C395.642 242.224 390.863 239.92 385.402 238.384C380.111 236.677 374.479 235.824 368.506 235.824C363.898 235.824 360.229 236.336 357.498 237.36C354.767 238.384 352.719 239.92 351.354 241.968C349.989 243.845 349.306 246.235 349.306 249.136ZM332.154 204.336L319.098 178.48C325.754 175.237 333.775 172.165 343.162 169.264C352.549 166.363 362.789 164.912 373.882 164.912C384.293 164.912 393.594 166.448 401.786 169.52C409.978 172.421 416.463 176.688 421.242 182.32C426.021 187.952 428.41 194.864 428.41 203.056V286H391.29V211.76C391.29 208.859 390.778 206.384 389.754 204.336C388.901 202.117 387.535 200.24 385.658 198.704C383.781 197.168 381.391 196.059 378.49 195.376C375.759 194.693 372.602 194.352 369.018 194.352C363.727 194.352 358.522 194.949 353.402 196.144C348.453 197.339 344.101 198.789 340.346 200.496C336.591 202.032 333.861 203.312 332.154 204.336ZM489.866 227.12C489.866 233.435 491.231 238.896 493.962 243.504C496.693 247.941 500.447 251.44 505.226 254C510.175 256.56 515.466 257.84 521.098 257.84C525.877 257.84 530.399 257.157 534.666 255.792C539.103 254.256 543.114 252.208 546.698 249.648C550.453 247.088 553.525 243.931 555.914 240.176V277.808C551.818 281.051 546.698 283.696 540.554 285.744C534.41 287.621 526.901 288.56 518.026 288.56C505.055 288.56 493.365 286 482.954 280.88C472.714 275.76 464.607 268.592 458.634 259.376C452.831 250.16 449.93 239.408 449.93 227.12C449.93 214.661 452.831 203.909 458.634 194.864C464.607 185.648 472.714 178.48 482.954 173.36C493.365 168.24 505.055 165.68 518.026 165.68C526.901 165.68 534.41 166.704 540.554 168.752C546.698 170.629 551.818 173.019 555.914 175.92V213.808C553.525 210.053 550.367 206.896 546.442 204.336C542.687 201.776 538.591 199.813 534.154 198.448C529.717 197.083 525.365 196.4 521.098 196.4C515.466 196.4 510.175 197.765 505.226 200.496C500.447 203.227 496.693 206.896 493.962 211.504C491.231 216.112 489.866 221.317 489.866 227.12ZM583.598 86.3198H620.718V286H583.598V86.3198ZM663.47 168.24H709.806L659.374 216.88L714.926 286H669.358L613.038 216.88L663.47 168.24ZM717.78 168.24H796.628V200.24H717.78V168.24ZM738.516 127.28H775.636V286H738.516V127.28ZM810.8 123.952C810.8 117.808 813.019 112.859 817.456 109.104C821.893 105.179 827.184 103.216 833.328 103.216C839.643 103.216 844.933 105.179 849.2 109.104C853.637 112.859 855.856 117.808 855.856 123.952C855.856 130.096 853.637 135.131 849.2 139.056C844.933 142.981 839.643 144.944 833.328 144.944C827.184 144.944 821.893 142.981 817.456 139.056C813.019 135.131 810.8 130.096 810.8 123.952ZM814.64 168.24H852.016V286H814.64V168.24ZM876.942 227.12C876.942 214.661 879.843 203.824 885.646 194.608C891.449 185.392 899.47 178.224 909.71 173.104C919.95 167.984 931.47 165.424 944.27 165.424C957.07 165.424 968.505 167.984 978.574 173.104C988.814 178.224 996.835 185.392 1002.64 194.608C1008.61 203.824 1011.6 214.661 1011.6 227.12C1011.6 239.408 1008.61 250.16 1002.64 259.376C996.835 268.592 988.814 275.76 978.574 280.88C968.505 286 957.07 288.56 944.27 288.56C931.47 288.56 919.95 286 909.71 280.88C899.47 275.76 891.449 268.592 885.646 259.376C879.843 250.16 876.942 239.408 876.942 227.12ZM916.622 227.12C916.622 233.264 917.902 238.555 920.462 242.992C923.022 247.259 926.35 250.587 930.446 252.976C934.542 255.365 939.15 256.56 944.27 256.56C949.219 256.56 953.742 255.365 957.838 252.976C962.105 250.587 965.433 247.259 967.822 242.992C970.382 238.555 971.662 233.264 971.662 227.12C971.662 220.976 970.382 215.685 967.822 211.248C965.433 206.811 962.105 203.397 957.838 201.008C953.742 198.619 949.219 197.424 944.27 197.424C939.15 197.424 934.542 198.619 930.446 201.008C926.35 203.397 923.022 206.811 920.462 211.248C917.902 215.685 916.622 220.976 916.622 227.12ZM1111.4 214.32C1111.4 207.323 1110.03 201.947 1107.3 198.192C1104.74 194.437 1100.39 192.56 1094.25 192.56C1090.15 192.56 1086.57 193.413 1083.49 195.12C1080.42 196.827 1078.03 199.301 1076.33 202.544C1074.62 205.787 1073.77 209.712 1073.77 214.32V286H1034.85V168.24H1073.77V185.904C1077.18 179.419 1081.79 174.384 1087.59 170.8C1093.56 167.216 1100.9 165.424 1109.61 165.424C1124.28 165.424 1134.95 169.349 1141.61 177.2C1148.26 185.051 1151.59 196.059 1151.59 210.224V286H1111.4V214.32Z" fill="white"/>
</svg>
